<?xml version="1.0" encoding="utf-8"?>
<!-- Generator: Adobe Illustrator 24.2.1, SVG Export Plug-In . SVG Version: 6.00 Build 0)  -->
<svg version="1.1" id="plant" xmlns="http://www.w3.org/2000/svg" xmlns:xlink="http://www.w3.org/1999/xlink" x="0px" y="0px"
	 viewBox="0 0 512 512" style="enable-background:new 0 0 512 512;" xml:space="preserve">
<style type="text/css">
	.st0{fill:#818181;}
</style>
<g>
	<path class="st0" d="M289.9,331.7c-5.2-13-8.8-27-11-41.4c-3-2.8-6.1-5.6-9.1-8.2c-16.4-14.5-36.6-24.7-59.4-34.1
		c-23.7-9.8-48.2-21.3-73.5-29.3c-18.6-5.9-37.6-10-56.9-10c-0.9,0-1.9,0-2.8,0c-12,0.3-15.7-0.4-20.4,11c-3.3,8-3.3,15.1-3.5,23.5
		c-0.1,5.8-1.7,14.1,0.6,19.5c4.1,9.4,19.4,21.1,27,27.3c37.6,30.6,83.8,30.9,129.2,41.5c19.9,4.6,38.6,11.5,58.6,15.3
		c10.6,2,18.1,5.5,24.6,10.5c2.6,2,5.7,2.6,8.9,1.9c-0.3-0.7-0.6-1.4-0.9-1.9C295.7,347.1,291.4,335.5,289.9,331.7z"/>
	<path class="st0" d="M330,382c-5.2-11.8-6-31.8-2.6-45.4c1.8-7,4.1-14.8,7.3-20.7c4-7.5,10.1-13.9,14.3-21.4
		c10.9-19.3,18.4-38.2,31.5-56c11.1-15.1,24.3-27.9,36.9-41.4c19-20.3,35.6-42.3,41.1-69.7c2.9-14.5-1.2-29.7-5-43.1
		c-3.2-11.4-8.5-25.1-21.9-27.7c-3.3-0.6-8.1-0.9-12.9-0.9c-5.1,0-10.2,0.3-13.9,1c-8.4,1.5-9.5,4.1-17.3,7.7
		c-4.1,1.9-8.4,2-12.7,2.2c-3.1,0.1-6.1,0.2-9.2,1c-3.1,0.8-8.2,4.1-10.9,5.2c-14.7,5.7-17.5,6.9-26.4,21.2
		c-9,14.5-18.6,26.7-26.5,42c-13,25.3-20.4,59.2-23.8,87.1c-2.4,19-2.6,39.2-0.3,59c0.3,2.8,0.8,5.5,1.2,8.2
		c8.9,8.4,17.3,17.9,21.5,30.8c5,15.4,8.6,35.7,4.4,37.4c-0.9,0.4-1.8,0.6-2.7,0.8c2.8,6,5.9,15,7.7,19.1
		c9.1,19.6,5.3,34.1,10.2,51.6c5.3,19,11,37.6,11.4,57.5c0.2,8.1,0.2,16.3,0.1,24.5h27.2c-1-6-2.1-12-3-18
		C349.9,456.3,345.2,416.2,330,382z"/>
</g>
</svg>
